<?xml version="1.0" encoding="utf-8"?>
<!-- Generator: Adobe Illustrator 16.0.0, SVG Export Plug-In . SVG Version: 6.00 Build 0)  -->
<!DOCTYPE svg PUBLIC "-//W3C//DTD SVG 1.1//EN" "http://www.w3.org/Graphics/SVG/1.1/DTD/svg11.dtd">
<svg version="1.1" xmlns="http://www.w3.org/2000/svg" xmlns:xlink="http://www.w3.org/1999/xlink" x="0px" y="0px" width="360px"
	 height="216.086px" viewBox="0 0 360 216.086" enable-background="new 0 0 360 216.086" xml:space="preserve">
<g id="Layer_5_copy_2">
	<g>
		
			<ellipse fill="none" stroke="#000000" stroke-width="2" stroke-miterlimit="10" cx="179.994" cy="108.517" rx="174.006" ry="105.679"/>
	</g>
</g>
<g id="Layer_5">
	<g>
		<ellipse fill-rule="evenodd" clip-rule="evenodd" fill="#9FC9EB" cx="180.333" cy="108.201" rx="166.667" ry="99.024"/>
		
			<ellipse fill="none" stroke="#000000" stroke-width="6" stroke-miterlimit="10" cx="180.333" cy="108.201" rx="166.667" ry="99.024"/>
	</g>
</g>
<g id="Layer_2">
	<g>
		<path fill-rule="evenodd" clip-rule="evenodd" d="M225.536,116.358c-0.104,0.508-0.205,0.862-0.245,1.223
			c-0.17,1.538-0.222,3.097-0.525,4.607c-0.142,0.706-0.956,1.29-1.099,1.996c-0.134,0.667,0.423,1.462,0.284,2.125
			c-0.109,0.529-0.734,1.252-1.258,1.366c-1.942,0.429-3.87,1.073-5.945,0.684c-1.882-0.355-3.789-0.591-5.687-0.878
			c-0.25-0.039-0.501-0.094-0.753-0.104c-2.206-0.086-4.416-0.272-6.619-0.218c-2.705,0.074-5.404,0.457-8.11,0.493
			c-1.322,0.016-2.824-0.162-3.949-0.755c-3.228-1.704-6.392-1.776-9.946-0.249c0.847,0.077,1.502,0.008,2.049,0.208
			c2.322,0.853,4.767,1.539,6.878,2.739c3.091,1.759,3.396,5.14,0.856,7.35c-1.538,1.337-3.504,1.129-5.379,0.775
			c-2.229-0.418-4.438-0.934-6.659-1.396c-0.941-0.195-1.669,0.058-2.461,0.679c-0.925,0.721-2.065,1.364-3.216,1.628
			c-1.92,0.444-3.934,0.819-5.893,0.767c-5.036-0.141-10.111-0.22-15.074-0.929c-3.641-0.521-7.146-1.958-10.68-3.076
			c-2.275-0.721-4.447-1.643-6.167-3.354c-2.665-2.649-4.384-5.64-4.137-9.429c0.009-0.132-0.013-0.267-0.034-0.617
			c-0.665,0.493-1.209,0.908-1.764,1.31c-2.835,2.038-5.62,4.141-8.522,6.092c-3.734,2.506-7.577,4.858-11.938,6.319
			c-0.749,0.248-1.427,0.678-2.161,0.973c-4.062,1.644-8.096,3.354-12.212,4.866c-2.132,0.781-4.273,0.287-6.271-0.759
			c-0.352-0.184-0.892-0.256-1.271-0.149c-3.971,1.139-7.288,3.21-9.657,6.482c-1.752,2.422-4.156,3.985-6.899,5.192
			c-1.336,0.587-2.624,1.278-3.942,1.905c-0.221,0.103-0.508,0.193-0.736,0.149c-1.521-0.285-2.458,0.51-3.315,1.523
			c-1.765,2.086-4.159,2.285-6.632,1.739c-2.896-0.64-4.004-3.773-2.405-6.56c1.37-2.387,2.698-4.811,4.251-7.087
			c1.67-2.45,3.532-4.79,5.402-7.112c1.711-2.123,3.129-4.385,4.179-6.865c0.392-0.926,0.786-1.856,1.261-2.747
			c1.533-2.869,3.995-4.525,7.383-4.745c2.963-0.191,5.938-0.224,8.907-0.337c0.361-0.013,0.738-0.04,1.072-0.152
			c0.78-0.267,1.267-0.723,0.794-1.572c-2.147-3.867-2.138-8.013-1.784-12.214c0.279-3.315-0.417-6.391-2.803-8.959
			c-0.429-0.461-0.967-0.827-1.422-1.268c-0.527-0.511-1.103-1.004-1.502-1.599c-0.478-0.71-1.056-0.969-1.821-0.617
			c-0.776,0.356-1.486,0.843-2.237,1.254c-0.332,0.181-0.69,0.318-1.128,0.348c0.518-1.437,1.631-2.354,2.754-3.244
			c1.558-1.233,3.056-2.582,4.777-3.571c1.939-1.114,4.095-1.889,6.161-2.802c2.182-0.967,4.382-1.148,6.771-0.59
			c3.394,0.79,6.531-0.064,9.387-1.931c0.835-0.546,1.775-0.97,2.539-1.591c2.004-1.633,4.019-3.267,5.879-5.042
			c2.248-2.145,4.961-3.603,7.743-4.909c5.803-2.729,11.964-4.522,18.208-6.133c6.446-1.661,13.011-2.074,19.614-2.14
			c5.618-0.057,11.239,0.259,16.858,0.22c7.74-0.055,15.151,1.726,22.621,3.286c3.679,0.767,7.389,1.306,11.212,1.189
			c5.617-0.174,11.244-0.146,16.865-0.106c7.018,0.048,13.846,1.338,20.566,3.141c4.153,1.113,8.314,2.249,12.363,3.652
			c6.116,2.122,11.317,5.654,16.084,9.851c3.19,2.811,5.077,6.302,6.711,10.022c0.513,1.171,1.279,2.363,2.258,3.201
			c1.881,1.606,3.986,2.975,6.012,4.426c3.76,2.7,7.56,5.353,10.597,8.83c1.645,1.883,3.455,3.658,4.9,5.67
			c2.068,2.878,3.181,6.147,3.627,9.634c0.686,5.34,0.369,10.591-1.228,15.767c-1.81,5.866-5.868,9.614-11.748,11.916
			c-4.443,1.737-8.658,1.723-12.87-0.468c-0.713-0.372-1.499-0.703-1.208-1.683c0.158-0.535,1.502-0.913,2.297-0.685
			c2.347,0.672,4.707,0.979,7.015-0.06c4.93-2.218,8.944-5.534,9.481-11.034c0.344-3.063,0.455-5.76,0.164-8.476
			c-0.414-2.771-1.526-5.385-3.153-7.688c-1.877-2.656-3.856-5.3-6.168-7.604c-2.309-2.302-5.078-4.188-7.662-6.239
			c-0.639-0.505-1.14-0.213-1.283,0.451c-0.343,1.585-1.341,2.608-2.656,3.602c-1.796,1.354-2.057,3.742,0.241,5.075
			c2.025,1.176,3.851,2.682,5.687,4.132c0.38,0.301,0.645,1.017,0.568,1.486c-0.112,0.705-0.719,1.103-1.572,1.179
			c-0.661,0.059-1.295,0.373-1.952,0.524c-0.659,0.152-1.338,0.372-1.998,0.345c-3.636-0.146-7.23-0.111-10.802,0.782
			c-3.643,0.908-7.413,0.74-11.143,0.901c-2.388,0.102-4.785,0.244-7.145,0.578c-1.215,0.17-2.366,0.781-3.531,1.226
			c-2.249,0.862-4.428,1.959-6.753,2.539c-1.423,0.353-3.066-0.02-4.599-0.182c-0.505-0.053-0.854-0.124-1.361,0.15
			c-1.384,0.75-2.894,1.083-4.504,0.681c-0.843-0.21-1.242-0.645-1.289-1.526c-0.153-2.771,1.122-4.913,3.065-6.821
			c1.551-1.524,3.479-2.463,5.451-3.354c0.227-0.103,0.516-0.144,0.683-0.301c0.365-0.348,0.671-0.752,1.001-1.136
			c-0.417-0.204-0.813-0.53-1.253-0.598c-4.612-0.718-8.63-2.73-12.481-5.118C226.188,116.699,225.965,116.592,225.536,116.358z"/>
	</g>
</g>
<g id="outlines">
	<path fill-rule="evenodd" clip-rule="evenodd" fill="#FFFFFF" stroke="#FFFFFF" stroke-width="0.25" stroke-miterlimit="10" d="
		M137.324,110.609c2.636-2.78,5.774-4.918,9.087-6.853c7.153-4.172,14.959-6.517,23.237-7.546c4.292-0.532,8.613-0.6,12.901-0.161
		c3.882,0.398,7.715,1.139,10.971,3.476c0.36,0.258,1.022,0.204,1.54,0.188c1.547-0.046,3.091-0.142,4.649-0.01
		c-1.531,0.145-3.077,0.211-4.587,0.465c-0.979,0.166-1.684-0.038-2.493-0.563c-2.566-1.666-5.518-2.438-8.556-2.71
		c-9.583-0.858-18.911,0.514-28.005,3.325c-6.62,2.046-12.462,5.483-17.831,9.663C137.93,110.12,137.629,110.365,137.324,110.609z"
		/>
	<path fill-rule="evenodd" clip-rule="evenodd" fill="#FFFFFF" stroke="#FFFFFF" stroke-width="0.25" stroke-miterlimit="10" d="
		M134.166,98.713c-0.751-3.811,2.043-5.611,5.566-5.246c1.425,0.146,2.835,0.417,4.297,0.637c-0.165-1.522-1.553-2.923-3.342-3.088
		c-4.121-0.376-7.806-1.918-11.521-3.475c-2.008-0.84-4.093-1.527-6.184-2.169c-1.904-0.584-3.756-0.048-5.48,0.695
		c-1.465,0.631-2.82,1.492-4.477,2.388c2.784-2.38,5.536-4.111,9.246-3.773c3.032,0.278,5.769,1.468,8.544,2.516
		c3.164,1.197,6.352,2.241,9.724,2.829c2.084,0.365,3.882,1.34,4.379,3.631c0.157,0.725-0.083,1.015-0.782,0.955
		c-1.292-0.113-2.6-0.191-3.86-0.462c-1.506-0.323-2.903-0.12-4.211,0.533C134.315,95.556,134.522,97.285,134.166,98.713z"/>
	<path fill-rule="evenodd" clip-rule="evenodd" fill="#FFFFFF" stroke="#FFFFFF" stroke-width="0.25" stroke-miterlimit="10" d="
		M223.694,108.055c-1.533-0.692-3.069-1.383-4.603-2.075c-0.077,0.104-2.639-2.135-4.411-3.401
		c-0.539-0.385-1.128-0.706-1.693-1.056c0.064-0.104,0.127-0.21,0.192-0.317c1.478,0.784,2.956,1.567,4.501,2.383
		c-0.634-9.848,4.243-16.666,13.04-21.291c-1.309,0.987-2.636,1.954-3.925,2.962c-4.212,3.294-6.855,7.496-7.768,12.603
		c-0.352,1.979-0.354,4.013-0.527,6.021c-0.074,0.852,0.476,1.17,1.184,1.505c1.127,0.529,2.191,1.181,3.274,1.792
		c0.369,0.206,0.721,0.445,1.079,0.669C223.924,107.917,223.809,107.987,223.694,108.055z"/>
	<path fill-rule="evenodd" clip-rule="evenodd" fill="#FFFFFF" stroke="#FFFFFF" stroke-width="0.25" stroke-miterlimit="10" d="
		M140.312,118.886c3.057,0.981,6.082,2.033,9.163,2.904c1.505,0.426,3.107,0.626,4.68,0.732c6.322,0.425,12.595,1.149,18.71,2.782
		c3.149,0.842,5.109,2.852,5.663,5.987c-0.233-0.507-0.433-1.03-0.706-1.517c-1.579-2.812-4.243-4.003-7.413-4.39
		c-5.81-0.704-11.638-1.286-17.425-2.123c-4.461-0.645-8.617-2.271-12.605-4.265c-0.03-0.016-0.07-0.047-0.073-0.072
		C140.3,118.884,140.324,118.843,140.312,118.886z"/>
	<path fill-rule="evenodd" clip-rule="evenodd" fill="#FFFFFF" stroke="#FFFFFF" stroke-width="0.25" stroke-miterlimit="10" d="
		M264.302,120.869c-3.062,0.224-6.12,0.579-9.185,0.639c-4.601,0.09-9.207-0.023-13.81-0.063c-0.462-0.006-0.923-0.098-1.387-0.264
		c12.223,0,24.347-0.858,36.292-3.472c0.022,0.098,0.046,0.196,0.068,0.296c-1.031,0.288-2.049,0.618-3.091,0.857
		c-2.457,0.563-4.924,1.078-7.385,1.624c-0.233,0.049-0.447,0.18-0.672,0.275C264.856,120.797,264.58,120.833,264.302,120.869z"/>
	<path fill-rule="evenodd" clip-rule="evenodd" fill="#FFFFFF" stroke="#FFFFFF" stroke-width="0.25" stroke-miterlimit="10" d="
		M87.989,127.16c-2.869,1.736-5.659,3.607-8.628,5.172c-3.543,1.866-7.216,3.521-10.878,5.175c-3.662,1.651-7.093,3.6-9.943,6.38
		c-0.086,0.086-0.203,0.142-0.305,0.211c-0.08-0.081-0.159-0.161-0.238-0.243c1.184-1.072,2.295-2.227,3.563-3.201
		c3.036-2.33,6.434-4.131,10.003-5.591c5.043-2.063,9.829-4.563,14.526-7.239c0.56-0.319,1.137-0.607,1.705-0.914
		C87.86,126.995,87.925,127.078,87.989,127.16z"/>
	<path fill-rule="evenodd" clip-rule="evenodd" fill="#FFFFFF" stroke="#FFFFFF" stroke-width="0.25" stroke-miterlimit="10" d="
		M85.812,118.157c2.143,1.286,4.007,4.476,4.275,6.987c1.475-2.151,1.935-4.521,2.964-6.721c-0.215,1.076-0.344,2.177-0.663,3.225
		c-0.84,2.755-2.235,5.225-3.89,7.656c-2.379,3.492-3.155,7.342,0.84,10.907c-1.16-0.44-1.986-1.254-2.571-2.279
		c-1.531-2.686-0.958-7.436,1.139-9.744c0.332-0.364,0.649-0.743,0.949-1.131c1.164-1.513,1.127-1.865,0.105-3.513
		C87.862,121.776,86.857,119.955,85.812,118.157z"/>
	<path fill-rule="evenodd" clip-rule="evenodd" fill="#FFFFFF" stroke="#FFFFFF" stroke-width="0.25" stroke-miterlimit="10" d="
		M210.284,125.139c-1.647,0.048-2.612-0.927-3.49-2.035c-0.719-0.904-1.341-1.956-2.622-2.202c-3.524-0.684-4.991-3.17-5.575-6.116
		c-0.704-3.534,0.407-6.657,3.331-9.082c0.009-0.007,0.052,0.022,0.063,0.028c-0.664,1.083-1.427,2.126-1.976,3.263
		c-1.719,3.563-0.447,8.223,2.827,10.618c0.169,0.122,0.358,0.287,0.55,0.307c1.777,0.168,2.809,1.272,3.709,2.582
		C207.894,123.654,208.748,124.76,210.284,125.139z"/>
	<path fill-rule="evenodd" clip-rule="evenodd" fill="#FFFFFF" stroke="#FFFFFF" stroke-width="0.25" stroke-miterlimit="10" d="
		M130.36,110.285c0.183,1.243,0.399,2.483,0.541,3.729c0.369,3.267-0.445,6.199-2.708,8.747c-2.444,2.748-5.129,5.229-8.637,7.271
		c1.001-0.921,1.753-1.671,2.567-2.354c2.852-2.397,5.098-5.256,7.091-8.31c0.938-1.438,1.144-3.02,1.072-4.664
		c-0.064-1.464-0.126-2.929-0.188-4.391C130.187,110.304,130.274,110.294,130.36,110.285z"/>
	<path fill-rule="evenodd" clip-rule="evenodd" fill="#FFFFFF" stroke="#FFFFFF" stroke-width="0.25" stroke-miterlimit="10" d="
		M70.098,143.692c-1.07,0.92-2.249,1.752-3.185,2.78c-1.511,1.663-0.929,3.202,1.14,4.169c1.901,0.89,3.532,0.705,5.164-0.436
		c0.256-0.178,0.544-0.313,0.877-0.503c-0.62,1.34-3.021,2.556-4.482,2.278c-0.811-0.155-1.62-0.36-2.395-0.631
		c-2.053-0.718-2.754-2.809-1.566-4.557C66.493,145.56,68.585,143.998,70.098,143.692z"/>
	<path fill-rule="evenodd" clip-rule="evenodd" fill="#FFFFFF" stroke="#FFFFFF" stroke-width="0.25" stroke-miterlimit="10" d="
		M56.679,147.733c0.027,0.011,0.08,0.02,0.08,0.028c-0.099,2.575,1.507,3.842,3.861,4.506c1.344,0.381,2.689,0.79,4.063,1.039
		c1.756,0.32,3.435-0.108,5.032-0.858c0.044,0.104,0.087,0.205,0.131,0.307c-0.828,0.369-1.618,0.878-2.488,1.081
		c-3.527,0.824-6.728,0.058-9.573-2.05C56.495,150.826,56.09,149.226,56.679,147.733z"/>
	<path fill-rule="evenodd" clip-rule="evenodd" fill="#FFFFFF" stroke="#FFFFFF" stroke-width="0.25" stroke-miterlimit="10" d="
		M264.302,120.869c0.278-0.036,0.555-0.071,0.832-0.106c2.373-0.156,4.748-0.458,7.117-0.427c2.687,0.031,5.371,0.363,8.056,0.565
		c-0.001,0.113-0.003,0.226-0.004,0.339c-0.184,0.034-0.367,0.1-0.553,0.098c-4.835-0.014-9.671-0.025-14.505-0.067
		C264.929,121.267,264.616,121.008,264.302,120.869z"/>
	<path fill-rule="evenodd" clip-rule="evenodd" fill="#FFFFFF" stroke="#FFFFFF" stroke-width="0.25" stroke-miterlimit="10" d="
		M188.064,111.138c-0.017,2.159-0.11,4.341-1.111,6.321c-1.559,3.095-1.635,4.434,0.048,7.429c-1.55-0.854-1.813-2.259-2.007-3.634
		c-0.219-1.565,0.111-2.984,1.042-4.408c0.755-1.152,0.967-2.628,1.378-3.973c0.182-0.591,0.262-1.209,0.386-1.812
		C187.887,111.087,187.977,111.112,188.064,111.138z"/>
	<path fill-rule="evenodd" clip-rule="evenodd" fill="#FFFFFF" stroke="#FFFFFF" stroke-width="0.25" stroke-miterlimit="10" d="
		M206.077,104.411c0.107-1.828,0.569-3.544,1.674-5.017c0.763-1.021,1.862-1.011,2.726,0.029c1.261,1.517,1.755,3.348,2.228,5.172
		c-0.084,0.037-0.167,0.074-0.251,0.114c-0.229-0.46-0.427-0.935-0.69-1.373c-0.626-1.043-1.231-2.101-1.938-3.089
		c-0.473-0.663-1.138-0.641-1.58,0.054c-0.576,0.908-1.063,1.871-1.567,2.818C206.451,103.539,206.274,103.979,206.077,104.411z"/>
	<path fill-rule="evenodd" clip-rule="evenodd" fill="#FFFFFF" stroke="#FFFFFF" stroke-width="0.25" stroke-miterlimit="10" d="
		M81.829,92.191c1.893-0.615,3.746-1.41,5.689-1.797c2.07-0.412,4.84,1.75,5.545,4.11c-0.783-0.739-1.435-1.438-2.176-2.039
		c-2.085-1.688-4.387-1.082-6.671-0.48c-0.753,0.198-1.497,0.429-2.246,0.645C81.923,92.483,81.875,92.337,81.829,92.191z"/>
	<path fill-rule="evenodd" clip-rule="evenodd" fill="#FFFFFF" stroke="#FFFFFF" stroke-width="0.25" stroke-miterlimit="10" d="
		M236.138,133.685c-1.41-1.514-0.951-5.242,0.645-6.216c1.235-0.756,4.29-1.149,6.112-0.686c-0.711,0.13-1.18,0.219-1.649,0.298
		c-0.462,0.074-0.935,0.106-1.388,0.216c-3.012,0.731-4.173,2.364-3.842,5.38C236.047,132.972,236.087,133.266,236.138,133.685z"/>
	<path fill-rule="evenodd" clip-rule="evenodd" fill="#FFFFFF" stroke="#FFFFFF" stroke-width="0.25" stroke-miterlimit="10" d="
		M117.486,95.238c2.726-2.396,4.223-6.2,8.661-6.636c-3.051,1.055-4.343,4.006-6.821,5.678c-0.556,0.375-1.084,0.784-1.625,1.179
		C117.63,95.385,117.558,95.313,117.486,95.238z"/>
	<path fill-rule="evenodd" clip-rule="evenodd" fill="#FFFFFF" stroke="#FFFFFF" stroke-width="0.25" stroke-miterlimit="10" d="
		M93.74,135.239c0.424-0.941,0.904-1.862,1.262-2.824c0.574-1.545,0.292-1.924-1.452-2.094c-0.61-0.059-1.228-0.052-1.842-0.073
		c-0.567-0.021-1.134-0.041-1.705-0.179c1.727-0.465,3.482-0.686,5.257-0.42c0.814,0.121,1.249,0.677,1.069,1.512
		C95.975,132.812,95.042,134.155,93.74,135.239z"/>
	<path fill-rule="evenodd" clip-rule="evenodd" fill="#FFFFFF" stroke="#FFFFFF" stroke-width="0.25" stroke-miterlimit="10" d="
		M212.918,120.147c0.191,1.356,0.375,2.65,0.555,3.932c-1.111-0.399-1.285-0.839-1.108-2.658c-1.003,0.195-2.079,0.636-3.099,0.543
		c-0.987-0.094-1.921-0.735-2.81-1.348C208.738,121.298,210.906,121.412,212.918,120.147z"/>
	<path fill-rule="evenodd" clip-rule="evenodd" fill="#FFFFFF" stroke="#FFFFFF" stroke-width="0.25" stroke-miterlimit="10" d="
		M188.342,134.198c0.356-0.252,0.62-0.438,0.934-0.662c-0.513-0.125-0.978-0.24-1.443-0.356c-0.001-0.06-0.004-0.116-0.006-0.176
		c0.537-0.108,1.075-0.217,1.611-0.324c0.023-0.104,0.05-0.209,0.073-0.313c-0.654-0.17-1.31-0.342-1.999-0.525
		c0.268-0.596,0.962-0.573,1.547-0.424c0.547,0.138,1.143,0.428,1.486,0.829c0.179,0.209-0.145,0.805-0.27,1.348
		c0.308,0.172,1.386-0.004,1.084,1.046c-0.223,0.767-1.468,1.011-2.739,0.514c0.331-0.086,0.557-0.13,0.771-0.204
		c0.218-0.08,0.425-0.189,0.626-0.517C189.522,134.364,189.031,134.296,188.342,134.198z"/>
	<path fill-rule="evenodd" clip-rule="evenodd" fill="#FFFFFF" stroke="#FFFFFF" stroke-width="0.25" stroke-miterlimit="10" d="
		M224.417,112.073c1.354-1.818,5.271-1.856,6.597-0.723C228.856,111.585,226.588,111.833,224.417,112.073z"/>
	<path fill-rule="evenodd" clip-rule="evenodd" fill="#FFFFFF" stroke="#FFFFFF" stroke-width="0.25" stroke-miterlimit="10" d="
		M213.252,118.374c0.589,0.353,1.224,0.66,1.739,1.096c0.153,0.13,0.089,0.804-0.089,0.913c-0.37,0.227-0.884,0.241-1.338,0.343
		c-0.033-0.082-0.067-0.165-0.102-0.249c0.187-0.175,0.371-0.346,0.621-0.585c-0.343-0.408-0.691-0.823-1.036-1.236
		C213.115,118.562,213.184,118.466,213.252,118.374z"/>
	<path fill-rule="evenodd" clip-rule="evenodd" fill="#FFFFFF" stroke="#FFFFFF" stroke-width="0.25" stroke-miterlimit="10" d="
		M184.486,130.979c0.057-0.371-0.059-1.125,0.253-1.356c0.714-0.529,1.511-0.146,2.228,0.271
		C186.176,130.24,185.449,130.559,184.486,130.979z"/>
</g>
<g id="Layer_5_copy_3">
	<g>
		<ellipse fill-rule="evenodd" clip-rule="evenodd" fill="none" cx="182.748" cy="111.67" rx="135.488" ry="67.812"/>
		<path d="M64.313,73.637l-2.359,1.96l0.545,0.879c0.014,0.017,0.029,0.048,0.044,0.093c0.084,0.21,0.182,0.38,0.291,0.512
			c0.171,0.206,0.463,0.258,0.877,0.156c0.218-0.056,0.38-0.06,0.484-0.011s0.232,0.165,0.384,0.347
			c0.195,0.234,0.298,0.387,0.31,0.459c0.012,0.072-0.035,0.152-0.142,0.241l-2.49,2.07c-0.139,0.115-0.317,0.041-0.535-0.222
			c-0.261-0.314-0.362-0.66-0.303-1.038c0.062-0.35,0.024-0.638-0.11-0.864l-6.627-11.54c-0.097-0.18-0.192-0.328-0.287-0.442
			c-0.147-0.177-0.414-0.221-0.8-0.132c-0.184,0.037-0.373-0.062-0.567-0.296c-0.261-0.314-0.403-0.524-0.427-0.63
			c-0.024-0.105,0.046-0.227,0.21-0.363l3.614-3.003c0.22-0.184,0.453-0.218,0.698-0.103s0.675,0.453,1.291,1.014
			c0.242,0.214,0.481,0.425,0.719,0.634l9.379,8.125c0.456,0.394,0.931,0.588,1.427,0.582c0.134-0.005,0.229,0,0.286,0.016
			s0.163,0.119,0.319,0.307c0.242,0.291,0.369,0.488,0.379,0.59c0.011,0.102-0.057,0.213-0.201,0.334l-4.203,3.493
			c-0.126,0.105-0.279,0.049-0.459-0.168c-0.228-0.274-0.355-0.458-0.38-0.553s-0.001-0.25,0.073-0.467
			c0.115-0.308,0.091-0.56-0.07-0.754C65.513,74.661,65.058,74.253,64.313,73.637z M56.797,66.896l4.496,7.584l2.104-1.749
			L56.797,66.896z"/>
		<path d="M68.595,58.371c0.233-1.463,0.88-2.528,1.942-3.197c0.725-0.457,1.413-0.593,2.064-0.411
			c0.65,0.183,1.178,0.595,1.582,1.236l5.686,9.031c0.127,0.201,0.311,0.301,0.551,0.298c0.215-0.013,0.438,0.164,0.667,0.528
			c0.182,0.289,0.265,0.479,0.248,0.568c-0.016,0.089-0.108,0.186-0.274,0.291l-2.926,1.842c-0.618-0.058-1.089-0.345-1.414-0.86
			l-5.644-8.966c-0.309-0.49-0.686-0.595-1.129-0.316c-0.292,0.184-0.521,0.521-0.687,1.012l5.538,8.796
			c0.142,0.226,0.375,0.326,0.697,0.298c0.193-0.017,0.353,0.076,0.479,0.277l0.303,0.481c0.135,0.214,0.032,0.428-0.308,0.642
			l-3.697,2.328c-0.181,0.114-0.31,0.162-0.388,0.146s-0.177-0.119-0.295-0.308l-0.22-0.349c-0.115-0.182-0.133-0.35-0.056-0.504
			c0.099-0.211,0.144-0.38,0.133-0.505c-0.011-0.125-0.117-0.348-0.319-0.668l-5.805-9.22c-0.138-0.22-0.357-0.306-0.657-0.258
			c-0.167,0.026-0.297-0.033-0.388-0.177l-0.314-0.5c-0.123-0.195-0.087-0.354,0.107-0.476l3.395-2.137
			c0.146-0.092,0.248-0.13,0.307-0.114c0.058,0.016,0.125,0.084,0.2,0.203L68.595,58.371z"/>
		<path d="M77.351,47.973c0.823-0.427,1.364-0.391,1.624,0.11c0.206,0.396,0.104,0.873-0.303,1.432
			c-0.408,0.559-0.961,1.02-1.66,1.383c-0.903,0.469-1.496,0.43-1.78-0.117c-0.226-0.435-0.082-0.932,0.431-1.492
			C76.177,48.729,76.739,48.291,77.351,47.973z M76.26,53.347l-0.339-0.652c-0.113-0.218-0.024-0.402,0.267-0.553l3.483-1.81
			c0.247-0.128,0.428-0.084,0.541,0.133l5.906,11.369c0.082,0.158,0.146,0.255,0.191,0.29c0.046,0.035,0.132,0.044,0.26,0.028
			c0.305-0.042,0.54,0.096,0.705,0.412c0.188,0.362,0.283,0.589,0.284,0.681c0.001,0.092-0.096,0.188-0.292,0.29l-4.227,2.196
			c-0.108,0.04-0.195,0.033-0.26-0.021s-0.175-0.229-0.329-0.526c-0.185-0.355-0.198-0.612-0.04-0.77
			c0.195-0.193,0.243-0.386,0.144-0.577l-5.121-9.856c-0.198-0.382-0.475-0.532-0.829-0.448
			C76.458,53.567,76.342,53.505,76.26,53.347z"/>
		<path d="M93.532,45.847c0.645-1.518,1.445-2.473,2.401-2.866c0.417-0.171,0.846-0.255,1.287-0.252
			c0.44,0.004,0.865,0.168,1.274,0.494c0.409,0.326,0.716,0.739,0.922,1.241l4.012,9.757c0.073,0.179,0.229,0.319,0.466,0.422
			c0.269,0.114,0.442,0.268,0.521,0.46l0.204,0.495c0.102,0.247,0.027,0.422-0.223,0.525l-3.244,1.333
			c-0.588-0.136-1.021-0.543-1.301-1.224l-3.99-9.706c-0.195-0.474-0.547-0.606-1.055-0.397c-0.318,0.131-0.533,0.306-0.643,0.523
			s-0.12,0.437-0.03,0.656l3.826,9.304c0.079,0.192,0.266,0.324,0.562,0.395c0.179,0.047,0.291,0.125,0.336,0.235l0.254,0.618
			c0.102,0.248,0.023,0.424-0.234,0.53l-3.312,1.361c-0.57-0.199-0.985-0.615-1.245-1.247l-3.991-9.706
			c-0.186-0.453-0.484-0.596-0.894-0.427c-0.167,0.069-0.414,0.287-0.742,0.654c-0.03,0.036-0.075,0.087-0.137,0.153l3.974,9.665
			c0.077,0.185,0.266,0.312,0.569,0.38c0.194,0.041,0.324,0.14,0.389,0.298l0.229,0.556c0.102,0.248,0.016,0.427-0.257,0.54
			l-4.279,1.759c-0.205,0.084-0.341,0.044-0.409-0.121l-0.279-0.68c-0.042-0.103-0.001-0.293,0.125-0.569
			c0.138-0.29,0.183-0.493,0.135-0.609l-4.275-10.397c-0.113-0.274-0.323-0.409-0.631-0.402c-0.185,0.003-0.32-0.099-0.406-0.307
			l-0.218-0.53c-0.091-0.221,0.011-0.393,0.307-0.515l3.573-1.469c0.266-0.109,0.444-0.054,0.534,0.166l0.428,1.041
			c0.586-1.421,1.388-2.341,2.404-2.759C91.494,44.806,92.515,45.012,93.532,45.847z"/>
		<path d="M109.1,43.423l-0.637-2.053c-0.176-0.567-0.519-0.772-1.028-0.614c-0.697,0.216-0.913,0.754-0.646,1.612
			c0.15,0.482,0.196,0.845,0.138,1.088c-0.058,0.244-0.277,0.504-0.659,0.782c-0.382,0.278-0.816,0.493-1.301,0.643
			c-0.995,0.309-1.642-0.019-1.941-0.984c-0.282-0.908-0.079-1.783,0.608-2.626c0.687-0.843,1.728-1.481,3.123-1.914
			c0.917-0.284,1.776-0.427,2.58-0.427c0.803,0,1.507,0.2,2.112,0.603s1.009,0.926,1.21,1.571l3.012,9.707
			c0.031,0.044,0.182,0.114,0.452,0.209c0.189,0.058,0.316,0.189,0.38,0.395c0.088,0.284,0.107,0.498,0.057,0.641
			c-0.05,0.144-0.226,0.317-0.528,0.52c-0.303,0.203-0.704,0.382-1.206,0.538c-0.611,0.189-1.152,0.247-1.622,0.171
			c-0.47-0.076-0.911-0.373-1.32-0.891c-0.483,0.85-0.909,1.43-1.277,1.738c-0.368,0.309-0.775,0.532-1.222,0.671
			c-0.994,0.309-1.872,0.195-2.636-0.341c-0.764-0.536-1.395-1.604-1.892-3.206c-0.497-1.602-0.586-2.792-0.27-3.569
			s1.134-1.659,2.452-2.643C107.877,44.424,108.564,43.884,109.1,43.423z M109.529,44.806c-0.776,0.629-1.181,1.191-1.216,1.688
			c-0.035,0.496,0.188,1.52,0.669,3.071c0.354,1.14,0.648,1.839,0.882,2.096c0.234,0.257,0.524,0.332,0.869,0.225
			c0.604-0.187,0.765-0.734,0.483-1.641L109.529,44.806z"/>
		<path d="M113.991,35.475l-0.139-0.54c-0.059-0.23,0.078-0.388,0.412-0.474l3.682-0.948c0.199-0.051,0.333-0.07,0.404-0.058
			c0.071,0.013,0.134,0.126,0.19,0.342l3.878,15.072c0.085,0.331,0.257,0.505,0.516,0.523c0.182,0.015,0.296,0.115,0.344,0.302
			l0.158,0.615c0.058,0.223-0.092,0.38-0.45,0.472l-4.373,1.125c-0.247,0.063-0.398-0.017-0.456-0.24L118,51.054
			c-0.065-0.251,0.01-0.47,0.225-0.656c0.14-0.112,0.222-0.205,0.247-0.276c0.024-0.071,0.014-0.193-0.031-0.366l-3.439-13.367
			c-0.065-0.252-0.216-0.393-0.452-0.424C114.248,35.911,114.062,35.748,113.991,35.475z"/>
		<path d="M136.016,41.771l0.642,3.654c0.074,0.424,0.325,0.667,0.752,0.728c0.205,0.032,0.356,0.098,0.453,0.197
			c0.097,0.1,0.172,0.304,0.226,0.611c0.052,0.292,0.039,0.481-0.038,0.566c-0.077,0.085-0.249,0.151-0.515,0.198l-5.49,0.964
			c-0.291,0.051-0.477-0.154-0.558-0.614c-0.064-0.366-0.084-0.594-0.058-0.686c0.025-0.091,0.149-0.19,0.373-0.297
			c0.2-0.095,0.32-0.182,0.36-0.261c0.041-0.079,0.046-0.202,0.016-0.371l-2.328-13.254c-0.055-0.314-0.314-0.529-0.775-0.644
			c-0.246-0.07-0.393-0.218-0.44-0.443l-0.103-0.514c-0.039-0.22-0.034-0.369,0.015-0.45c0.048-0.08,0.177-0.138,0.388-0.175
			l6.205-1.09c1.786-0.313,3.301-0.046,4.545,0.802s2.027,2.187,2.348,4.016c0.181,1.031,0.179,1.978-0.007,2.84
			c-0.186,0.862-0.494,1.527-0.924,1.995s-0.949,0.879-1.557,1.235s-1.28,0.598-2.015,0.727L136.016,41.771z M134.18,31.315
			l1.615,9.195l0.849-0.149c0.291-0.051,0.526-0.241,0.706-0.571c0.179-0.329,0.21-0.831,0.092-1.503l-0.961-5.475
			c-0.216-1.229-0.776-1.764-1.681-1.605L134.18,31.315z"/>
		<path d="M148.457,33.696c0.075-0.189,0.154-0.514,0.237-0.973c0.188-0.997,0.416-1.636,0.682-1.917s0.579-0.443,0.937-0.489
			c0.488-0.062,0.883,0.102,1.184,0.491s0.492,0.9,0.572,1.534c0.172,1.363-0.165,2.098-1.012,2.205
			c-0.423,0.054-0.777-0.13-1.062-0.551c-0.171-0.24-0.33-0.352-0.476-0.333c-0.366,0.046-0.503,0.434-0.412,1.164l1.115,8.831
			c0.035,0.28,0.204,0.468,0.505,0.565c0.3,0.089,0.468,0.274,0.504,0.554l0.063,0.497c0.022,0.177,0.014,0.292-0.024,0.346
			c-0.039,0.054-0.164,0.094-0.375,0.121l-4.603,0.581c-0.317,0.04-0.493-0.076-0.528-0.349l-0.077-0.608
			c-0.026-0.206,0.026-0.351,0.156-0.435c0.261-0.16,0.375-0.369,0.342-0.627l-1.404-11.13c-0.032-0.25-0.152-0.419-0.361-0.505
			c-0.226-0.083-0.358-0.155-0.399-0.213s-0.081-0.246-0.121-0.563c-0.034-0.265-0.012-0.437,0.065-0.514s0.217-0.128,0.421-0.154
			l3.296-0.416c0.155-0.02,0.265,0.006,0.332,0.076c0.067,0.07,0.119,0.253,0.156,0.547L148.457,33.696z"/>
		<path d="M158.716,29.491c1.537-0.13,2.873,0.385,4.008,1.545c1.135,1.16,1.807,2.968,2.015,5.425
			c0.224,2.649-0.13,4.697-1.061,6.144c-0.932,1.447-2.178,2.236-3.739,2.368c-1.079,0.091-2.041-0.141-2.886-0.695
			c-0.846-0.554-1.527-1.332-2.043-2.332c-0.517-1-0.851-2.398-1.003-4.197c-0.217-2.568,0.111-4.552,0.984-5.953
			C155.863,30.396,157.105,29.627,158.716,29.491z M159.834,32.203c-0.078-0.917-0.411-1.352-0.999-1.302
			c-0.638,0.054-0.909,0.644-0.814,1.768l0.78,9.225c0.094,1.118,0.432,1.652,1.012,1.603c0.646-0.055,0.921-0.641,0.827-1.758
			L159.834,32.203z"/>
		<path d="M167.121,30.584l-0.479,0.022c-0.14,0.006-0.228-0.004-0.267-0.032c-0.038-0.028-0.061-0.109-0.066-0.242l-0.038-0.801
			c-0.007-0.148,0.007-0.246,0.042-0.292c0.035-0.046,0.142-0.084,0.321-0.115c0.586-0.109,1.167-0.434,1.741-0.974
			c0.574-0.54,0.905-1.105,0.992-1.697c0.031-0.21,0.077-0.34,0.136-0.391c0.059-0.051,0.183-0.081,0.372-0.09l0.799-0.038
			c0.213-0.01,0.326,0.115,0.338,0.375l0.12,2.56l0.762-0.036c0.287-0.013,0.436,0.102,0.448,0.347l0.037,0.801
			c0.011,0.237-0.126,0.363-0.414,0.376l-0.762,0.036l0.539,11.529c0.019,0.393,0.224,0.666,0.617,0.819
			c0.192,0.073,0.32,0.167,0.383,0.283c0.063,0.116,0.102,0.33,0.116,0.641c0.009,0.193,0,0.301-0.028,0.325
			c-0.028,0.024-0.127,0.04-0.3,0.048l-3.884,0.181c-0.612-0.447-0.94-1.149-0.985-2.106L167.121,30.584z"/>
		<path d="M179.054,36.051l0.052,4.556c0.007,0.602,0.142,1.072,0.404,1.41c0.262,0.339,0.594,0.506,0.996,0.501
			c0.623-0.007,1.119-0.252,1.486-0.735c0.369-0.483,0.561-1.141,0.574-1.973c0.004-0.446,0.049-0.714,0.133-0.804
			c0.086-0.09,0.383-0.138,0.891-0.144c0.443-0.005,0.725,0.033,0.844,0.113c0.121,0.081,0.182,0.284,0.186,0.611
			c0.014,1.144-0.385,2.166-1.195,3.066c-0.811,0.9-1.892,1.358-3.245,1.374c-1.55,0.018-2.874-0.604-3.971-1.865
			c-1.098-1.261-1.661-3.173-1.69-5.735c-0.029-2.563,0.449-4.519,1.435-5.871c0.985-1.352,2.29-2.037,3.914-2.056
			c1.395-0.016,2.521,0.536,3.378,1.655s1.299,2.718,1.322,4.797l0.012,1.036L179.054,36.051z M180.699,34.64l-0.042-3.688
			c-0.008-0.698-0.287-1.044-0.836-1.038c-0.558,0.006-0.833,0.359-0.825,1.057l0.042,3.687L180.699,34.64z"/>
		<path d="M191.368,30.797l-0.311,10.781c-0.007,0.26,0.07,0.494,0.232,0.703c0.162,0.209,0.396,0.317,0.698,0.326
			c0.41,0.012,0.734-0.208,0.974-0.657c0.238-0.45,0.368-1.039,0.389-1.767l-0.003-0.312c0.011-0.394,0.098-0.625,0.26-0.695
			c0.162-0.069,0.436-0.099,0.821-0.088c0.336,0.01,0.564,0.072,0.684,0.187c0.12,0.115,0.175,0.351,0.164,0.707
			c-0.032,1.15-0.394,2.141-1.082,2.972s-1.644,1.229-2.865,1.194c-1.436-0.042-2.594-0.729-3.474-2.061
			c-0.881-1.331-1.287-3.195-1.219-5.591c0.052-1.795,0.328-3.281,0.83-4.458s1.095-2.047,1.78-2.61
			c0.685-0.563,1.527-0.83,2.528-0.802c1.188,0.034,2.119,0.419,2.791,1.155c0.673,0.737,0.995,1.576,0.968,2.519
			c-0.014,0.49-0.141,0.902-0.38,1.237s-0.593,0.496-1.061,0.482c-0.483-0.014-0.85-0.188-1.099-0.522
			c-0.249-0.334-0.366-0.746-0.353-1.236c0.006-0.208,0.038-0.448,0.095-0.722c0.075-0.317,0.115-0.569,0.12-0.754
			c0.006-0.193-0.067-0.359-0.22-0.497c-0.151-0.138-0.33-0.21-0.535-0.216c-0.196-0.005-0.367,0.067-0.511,0.219
			C191.447,30.443,191.373,30.612,191.368,30.797z"/>
		<path d="M198.087,30.568l-0.479-0.029c-0.14-0.009-0.227-0.029-0.261-0.061c-0.035-0.032-0.049-0.115-0.041-0.248l0.05-0.8
			c0.009-0.148,0.033-0.244,0.073-0.286c0.039-0.042,0.149-0.069,0.331-0.08c0.595-0.045,1.207-0.305,1.836-0.78
			s1.02-1.001,1.17-1.58c0.054-0.205,0.112-0.33,0.177-0.374s0.191-0.061,0.38-0.049l0.798,0.049
			c0.213,0.013,0.312,0.149,0.295,0.409l-0.157,2.558l0.762,0.047c0.286,0.018,0.422,0.149,0.407,0.394l-0.05,0.8
			c-0.015,0.237-0.165,0.347-0.451,0.33l-0.762-0.047l-0.71,11.519c-0.024,0.393,0.15,0.687,0.525,0.881
			c0.183,0.093,0.3,0.201,0.35,0.323s0.065,0.339,0.046,0.65c-0.012,0.193-0.032,0.299-0.063,0.32s-0.131,0.025-0.303,0.015
			l-3.881-0.239c-0.561-0.51-0.812-1.244-0.752-2.2L198.087,30.568z"/>
		<path d="M205.298,30.619l0.065-0.732c0.021-0.244,0.196-0.352,0.523-0.322l3.909,0.349c0.277,0.025,0.405,0.16,0.384,0.404
			l-1.141,12.76c-0.016,0.177-0.015,0.293,0.005,0.347s0.088,0.108,0.204,0.164c0.279,0.129,0.403,0.372,0.372,0.727
			c-0.036,0.407-0.079,0.649-0.127,0.727s-0.182,0.107-0.402,0.087l-4.744-0.424c-0.113-0.025-0.183-0.078-0.208-0.158
			s-0.023-0.287,0.007-0.62c0.035-0.399,0.162-0.623,0.381-0.67c0.269-0.058,0.412-0.194,0.432-0.409l0.989-11.063
			c0.038-0.429-0.114-0.704-0.458-0.824C205.346,30.91,205.282,30.796,205.298,30.619z M209.109,26.676
			c0.923,0.083,1.359,0.405,1.31,0.967c-0.04,0.444-0.382,0.792-1.026,1.043c-0.645,0.252-1.358,0.343-2.143,0.272
			c-1.014-0.09-1.492-0.442-1.438-1.057c0.044-0.488,0.433-0.83,1.166-1.025C207.713,26.682,208.423,26.615,209.109,26.676z"/>
		<path d="M218.512,30.739c1.529,0.196,2.728,0.981,3.593,2.354s1.142,3.282,0.827,5.728c-0.34,2.637-1.116,4.565-2.332,5.783
			c-1.215,1.218-2.6,1.727-4.153,1.527c-1.074-0.138-1.966-0.567-2.676-1.288s-1.212-1.623-1.506-2.709
			c-0.295-1.086-0.327-2.524-0.097-4.314c0.328-2.556,1.067-4.426,2.216-5.612C215.533,31.022,216.909,30.533,218.512,30.739z
			 M219.034,33.625c0.117-0.913-0.117-1.408-0.703-1.483c-0.635-0.082-1.023,0.438-1.168,1.557l-1.18,9.182
			c-0.144,1.112,0.074,1.706,0.651,1.78c0.643,0.083,1.036-0.432,1.179-1.544L219.034,33.625z"/>
		<path d="M230.692,34.293c1.16-0.921,2.357-1.269,3.593-1.044c0.843,0.153,1.442,0.518,1.799,1.092
			c0.356,0.575,0.466,1.234,0.33,1.979l-1.912,10.5c-0.043,0.234,0.025,0.431,0.204,0.592c0.167,0.136,0.212,0.417,0.135,0.84
			c-0.061,0.336-0.128,0.532-0.2,0.586s-0.206,0.064-0.399,0.029l-3.401-0.62c-0.417-0.461-0.57-0.991-0.461-1.59l1.898-10.423
			c0.104-0.57-0.103-0.902-0.619-0.996c-0.339-0.062-0.735,0.032-1.189,0.281l-1.862,10.226c-0.048,0.263,0.056,0.494,0.312,0.691
			c0.153,0.119,0.209,0.295,0.167,0.529l-0.103,0.559c-0.045,0.249-0.266,0.337-0.661,0.265l-4.297-0.783
			c-0.21-0.038-0.338-0.09-0.385-0.155c-0.047-0.065-0.05-0.207-0.01-0.426l0.074-0.405c0.038-0.212,0.139-0.349,0.3-0.41
			c0.216-0.089,0.362-0.183,0.438-0.283c0.076-0.099,0.149-0.335,0.217-0.708l1.953-10.719c0.046-0.256-0.058-0.467-0.311-0.634
			c-0.142-0.094-0.196-0.224-0.166-0.393l0.106-0.581c0.041-0.227,0.175-0.319,0.4-0.278l3.946,0.719
			c0.17,0.031,0.271,0.072,0.303,0.123s0.036,0.146,0.011,0.285L230.692,34.293z"/>
		<path d="M252.688,35.361c0.058-0.023,0.235-0.148,0.534-0.375c0.192-0.148,0.408-0.19,0.646-0.126
			c0.056,0.015,0.271,0.1,0.646,0.254c0.06,0.093,0.078,0.26,0.057,0.5l-0.34,3.82c-0.021,0.202-0.035,0.321-0.045,0.357
			c-0.036,0.136-0.102,0.215-0.196,0.235c-0.096,0.021-0.321-0.017-0.678-0.113c-0.403-0.109-0.652-0.226-0.746-0.351
			c-0.094-0.125-0.216-0.573-0.365-1.344c-0.317-1.631-0.753-2.521-1.308-2.67c-0.396-0.106-0.661,0.091-0.797,0.593
			c-0.167,0.624,0.101,2.011,0.805,4.162c0.804,2.477,1.286,4.244,1.449,5.298c0.162,1.055,0.086,2.167-0.229,3.336
			c-0.372,1.384-1.019,2.349-1.938,2.894c-0.92,0.545-1.831,0.696-2.734,0.453c-0.57-0.154-1.081-0.449-1.533-0.886
			c-0.175-0.17-0.322-0.271-0.44-0.303c-0.104-0.028-0.205,0.018-0.305,0.137c-0.2,0.238-0.546,0.292-1.037,0.159
			c-0.189-0.051-0.312-0.112-0.364-0.184c-0.053-0.072-0.064-0.227-0.034-0.465L244.104,47c0.044-0.48,0.07-0.734,0.078-0.763
			c0.056-0.208,0.294-0.256,0.714-0.143c0.57,0.153,0.889,0.312,0.955,0.476s0.129,0.515,0.188,1.054
			c0.229,1.93,0.695,2.99,1.4,3.18c0.262,0.07,0.496,0.041,0.705-0.087s0.348-0.322,0.417-0.58c0.122-0.452,0.086-1.037-0.107-1.754
			c-0.194-0.717-0.45-1.526-0.769-2.427c-0.762-2.158-1.256-3.851-1.482-5.077s-0.188-2.406,0.117-3.539
			c0.344-1.276,0.927-2.211,1.749-2.806s1.681-0.771,2.576-0.53C251.262,34.17,251.943,34.623,252.688,35.361z"/>
		<path d="M262.407,40.536c1.464,0.486,2.489,1.486,3.075,3c0.587,1.514,0.491,3.44-0.286,5.78c-0.838,2.523-1.97,4.266-3.396,5.228
			c-1.427,0.963-2.883,1.197-4.37,0.703c-1.027-0.341-1.82-0.934-2.379-1.776s-0.878-1.826-0.959-2.948
			c-0.081-1.122,0.163-2.54,0.731-4.252c0.813-2.446,1.896-4.14,3.251-5.083C259.43,40.244,260.874,40.027,262.407,40.536z
			 M262.367,43.469c0.29-0.874,0.155-1.404-0.405-1.59c-0.607-0.202-1.089,0.233-1.444,1.305l-2.919,8.786
			c-0.354,1.064-0.254,1.688,0.299,1.872c0.615,0.204,1.1-0.226,1.453-1.29L262.367,43.469z"/>
		<path d="M273.483,46.953l-4.067,9.989c-0.098,0.24-0.107,0.487-0.028,0.739c0.078,0.252,0.259,0.436,0.54,0.55
			c0.38,0.155,0.76,0.063,1.142-0.275c0.381-0.338,0.709-0.844,0.983-1.518l0.105-0.293c0.148-0.365,0.311-0.551,0.487-0.56
			c0.176-0.009,0.442,0.06,0.8,0.205c0.312,0.127,0.503,0.265,0.575,0.415c0.072,0.15,0.041,0.39-0.094,0.72
			c-0.435,1.066-1.119,1.868-2.055,2.405c-0.937,0.537-1.971,0.575-3.103,0.114c-1.329-0.542-2.173-1.591-2.532-3.147
			c-0.358-1.556-0.086-3.443,0.818-5.664c0.677-1.664,1.457-2.958,2.339-3.886c0.883-0.927,1.743-1.534,2.581-1.821
			c0.839-0.287,1.722-0.242,2.649,0.134c1.102,0.449,1.838,1.136,2.21,2.061c0.372,0.925,0.38,1.825,0.024,2.698
			c-0.185,0.454-0.448,0.796-0.79,1.026c-0.341,0.229-0.729,0.256-1.161,0.08c-0.448-0.183-0.73-0.474-0.847-0.874
			c-0.116-0.4-0.082-0.827,0.103-1.281c0.079-0.193,0.192-0.407,0.342-0.643c0.181-0.271,0.307-0.492,0.377-0.665
			c0.072-0.179,0.062-0.359-0.032-0.542s-0.235-0.313-0.426-0.39c-0.182-0.074-0.367-0.065-0.555,0.026
			C273.682,46.649,273.553,46.781,273.483,46.953z"/>
		<path d="M279.704,48.607l0.315-0.664c0.105-0.222,0.307-0.262,0.603-0.121l3.545,1.686c0.252,0.12,0.325,0.291,0.22,0.512
			l-5.504,11.569c-0.076,0.161-0.115,0.27-0.115,0.328c-0.001,0.057,0.044,0.132,0.134,0.224c0.218,0.219,0.25,0.489,0.097,0.811
			c-0.176,0.369-0.3,0.582-0.371,0.638c-0.072,0.056-0.208,0.037-0.408-0.058l-4.301-2.046c-0.098-0.063-0.145-0.136-0.141-0.221
			c0.005-0.084,0.078-0.278,0.222-0.58c0.173-0.362,0.369-0.527,0.591-0.496c0.271,0.039,0.454-0.039,0.547-0.233l4.771-10.029
			c0.185-0.389,0.138-0.7-0.143-0.932C279.647,48.897,279.628,48.769,279.704,48.607z M284.648,46.235
			c0.837,0.398,1.134,0.853,0.892,1.362c-0.191,0.402-0.633,0.61-1.324,0.622c-0.692,0.012-1.394-0.151-2.104-0.489
			c-0.919-0.437-1.245-0.934-0.98-1.49c0.21-0.443,0.693-0.628,1.45-0.556C283.337,45.755,284.026,45.939,284.648,46.235z"/>
		<path d="M287.821,59.774l-2.247,3.963c-0.297,0.523-0.417,0.997-0.361,1.422c0.057,0.425,0.26,0.736,0.609,0.934
			c0.542,0.308,1.094,0.345,1.655,0.113c0.561-0.233,1.057-0.705,1.488-1.417c0.227-0.383,0.4-0.593,0.519-0.628
			c0.119-0.035,0.399,0.073,0.843,0.324c0.385,0.219,0.609,0.393,0.672,0.522c0.063,0.13,0.015,0.337-0.146,0.621
			c-0.564,0.995-1.423,1.678-2.576,2.048s-2.318,0.222-3.496-0.445c-1.349-0.765-2.18-1.968-2.493-3.61s0.161-3.578,1.425-5.806
			c1.264-2.229,2.662-3.68,4.193-4.353c1.532-0.672,3.005-0.608,4.417,0.193c1.213,0.688,1.909,1.731,2.087,3.13
			c0.179,1.398-0.245,3.002-1.271,4.812l-0.512,0.901L287.821,59.774z M289.953,59.382l1.818-3.208
			c0.345-0.607,0.277-1.046-0.2-1.317c-0.485-0.275-0.9-0.109-1.244,0.498l-1.819,3.208L289.953,59.382z"/>
		<path d="M298.261,59.246l-0.396-0.272c-0.115-0.079-0.18-0.141-0.193-0.187s0.018-0.123,0.094-0.233l0.454-0.661
			c0.084-0.122,0.154-0.191,0.21-0.207c0.056-0.016,0.164,0.018,0.325,0.102c0.533,0.267,1.191,0.359,1.976,0.276
			c0.783-0.083,1.389-0.334,1.815-0.752c0.151-0.148,0.267-0.225,0.345-0.229s0.194,0.046,0.351,0.153l0.659,0.453
			c0.176,0.121,0.189,0.288,0.043,0.502l-1.452,2.111l0.629,0.432c0.236,0.163,0.286,0.345,0.146,0.547l-0.454,0.661
			c-0.135,0.196-0.32,0.212-0.557,0.05l-0.629-0.432l-6.537,9.512c-0.223,0.325-0.224,0.666-0.003,1.025
			c0.109,0.174,0.154,0.327,0.134,0.457c-0.02,0.13-0.118,0.324-0.295,0.581c-0.109,0.159-0.182,0.24-0.218,0.242
			c-0.037,0.002-0.126-0.046-0.268-0.144l-3.204-2.202c-0.218-0.726-0.056-1.484,0.487-2.274L298.261,59.246z"/>
		<path d="M304.701,72.91l4.734-3.679c0.075-0.052,0.131-0.093,0.166-0.122c0.188-0.133,0.304-0.225,0.347-0.275
			c0.125-0.147,0.142-0.395,0.053-0.744c-0.044-0.163-0.037-0.303,0.02-0.42c0.057-0.118,0.208-0.321,0.452-0.61
			c0.154-0.181,0.318-0.198,0.494-0.049l1.614,1.368c0.182,0.154,0.276,0.292,0.285,0.416c0.008,0.124-0.11,0.33-0.355,0.619
			c-0.144,0.17-0.238,0.26-0.284,0.27c-0.047,0.01-0.162,0.004-0.349-0.018c-0.267-0.041-0.605,0.1-1.019,0.422l-7.903,6.153
			c-1.38,1.07-2.294,1.734-2.743,1.991c-0.448,0.257-0.939,0.411-1.471,0.462c-0.532,0.05-1.053-0.014-1.563-0.192
			c-0.51-0.179-1.018-0.482-1.524-0.912c-0.552-0.466-0.876-0.943-0.974-1.43c-0.099-0.487,0.014-0.92,0.335-1.3
			c0.235-0.278,0.522-0.414,0.862-0.409c0.339,0.005,0.656,0.133,0.95,0.382c0.438,0.371,0.551,0.866,0.339,1.484
			c-0.104,0.301-0.071,0.523,0.098,0.666c0.319,0.271,0.605,0.255,0.86-0.045c0.081-0.096,0.287-0.467,0.618-1.111L304.2,65.31
			c0.266-0.505,0.435-0.866,0.506-1.083c0.07-0.217,0.068-0.401-0.008-0.553c-0.069-0.146-0.037-0.299,0.098-0.458l0.403-0.476
			c0.135-0.159,0.243-0.237,0.327-0.234c0.083,0.002,0.197,0.065,0.342,0.187l3.305,2.799c0.176,0.148,0.275,0.265,0.301,0.35
			s-0.018,0.192-0.128,0.322c-0.235,0.278-0.401,0.449-0.498,0.513c-0.097,0.063-0.224,0.068-0.381,0.013
			c-0.245-0.091-0.459-0.028-0.641,0.187c-0.105,0.125-0.221,0.305-0.345,0.54L304.701,72.91z"/>
	</g>
</g>
<g id="Layer_5_copy_4">
	<g>
		<ellipse fill-rule="evenodd" clip-rule="evenodd" fill="none" cx="179.119" cy="109.77" rx="139.117" ry="67.813"/>
		<path d="M107.136,163.611c0.306-1.101,0.986-1.956,2.04-2.565c1.054-0.609,2.179-0.748,3.374-0.415
			c1.125,0.313,1.988,0.958,2.59,1.934c0.602,0.977,0.747,2.027,0.433,3.152c-0.317,1.139-1.021,2.019-2.113,2.641
			c-1.092,0.623-2.208,0.775-3.345,0.459c-1.124-0.313-1.98-0.977-2.568-1.993C106.96,165.807,106.823,164.736,107.136,163.611z
			 M108.722,163.992c-0.299,1.075-0.292,2.041,0.024,2.896c0.315,0.856,0.851,1.389,1.607,1.6c0.691,0.192,1.394,0.027,2.106-0.495
			s1.223-1.337,1.531-2.443c0.275-0.988,0.266-1.938-0.026-2.853c-0.292-0.913-0.842-1.482-1.65-1.707
			c-0.75-0.209-1.461-0.027-2.136,0.543C109.505,162.103,109.02,162.922,108.722,163.992z"/>
		<path d="M120.389,163.708c-0.085,0.24-0.286,1.027-0.603,2.361c-0.409,1.72-0.653,2.777-0.733,3.172
			c-0.08,0.396-0.047,0.742,0.099,1.041s0.454,0.533,0.923,0.705c0.178,0.063,0.255,0.147,0.229,0.255
			c-0.021,0.089-0.104,0.115-0.247,0.082l-1.622-0.486c-1.064-0.253-1.785-0.397-2.162-0.434l-0.107-0.025
			c-0.144-0.034-0.205-0.098-0.183-0.189c0.026-0.111,0.157-0.154,0.393-0.131c0.309,0.033,0.537,0.017,0.684-0.049
			c0.146-0.065,0.261-0.18,0.345-0.344s0.27-0.764,0.557-1.799c0.288-1.036,0.554-2.069,0.799-3.102
			c0.098-0.411,0.203-0.868,0.315-1.37c-0.482-0.147-0.849-0.255-1.102-0.321c-0.253-0.067-0.364-0.167-0.333-0.3
			c0.054-0.228,0.148-0.362,0.282-0.403c0.134-0.042,0.585,0.019,1.353,0.181c0.264-1.108,0.562-1.971,0.895-2.588
			c0.333-0.617,0.841-1.073,1.525-1.369c0.684-0.296,1.463-0.34,2.337-0.132c0.816,0.193,1.37,0.472,1.663,0.836
			c0.292,0.363,0.39,0.75,0.292,1.161c-0.105,0.442-0.373,0.612-0.804,0.511c-0.157-0.037-0.274-0.122-0.354-0.255
			c-0.079-0.132-0.175-0.422-0.29-0.87c-0.165-0.641-0.518-1.024-1.06-1.153c-0.777-0.185-1.366,0.07-1.769,0.764
			c-0.403,0.694-0.701,1.447-0.894,2.258c-0.086,0.361-0.163,0.744-0.232,1.149c0.204,0.042,0.368,0.078,0.492,0.107
			c0.509,0.121,0.881,0.23,1.116,0.33s0.338,0.209,0.31,0.329c-0.025,0.107-0.091,0.209-0.196,0.304
			c-0.105,0.096-0.285,0.125-0.538,0.088s-0.523-0.089-0.811-0.157C120.812,163.828,120.621,163.776,120.389,163.708z"/>
		<path d="M136.665,168.126c-0.044,0.289-0.13,0.72-0.258,1.292c-0.063,0.28-0.116,0.564-0.161,0.854
			c-0.033,0.218-0.093,0.69-0.18,1.417c-0.087,0.726-0.109,1.185-0.067,1.375c0.042,0.19,0.168,0.387,0.378,0.59
			c0.209,0.203,0.45,0.332,0.72,0.386c0.302,0.065,0.444,0.156,0.427,0.272c-0.014,0.09-0.068,0.136-0.164,0.138
			c-0.096,0.002-0.448-0.044-1.058-0.137l-2.734-0.427c-0.769-0.117-1.177-0.19-1.223-0.221s-0.064-0.077-0.055-0.142
			c0.016-0.103,0.153-0.16,0.413-0.174c0.459-0.028,0.792-0.132,0.999-0.311s0.382-0.604,0.525-1.274s0.282-1.449,0.417-2.336
			l0.362-2.575l0.452-2.769c0.149-0.981,0.176-1.62,0.078-1.914s-0.344-0.507-0.737-0.64c-0.426-0.144-0.63-0.27-0.614-0.379
			s0.124-0.149,0.323-0.119l1.968,0.311l3.166,0.462c2.082,0.317,3.435,0.846,4.059,1.584c0.624,0.738,0.864,1.578,0.72,2.521
			c-0.171,1.123-0.771,1.895-1.798,2.315c-1.028,0.421-2.486,0.488-4.376,0.2C137.79,168.357,137.263,168.257,136.665,168.126z
			 M136.724,167.742c0.97,0.181,1.521,0.28,1.654,0.301c0.676,0.103,1.33,0.088,1.961-0.046c0.631-0.134,1.129-0.471,1.493-1.013
			c0.364-0.542,0.59-1.099,0.677-1.669c0.11-0.725-0.05-1.378-0.48-1.958c-0.431-0.581-1.306-0.972-2.625-1.173
			c-0.683-0.104-1.291-0.125-1.823-0.062c-0.042,0.23-0.067,0.374-0.076,0.432l-0.297,2.219l-0.399,2.352
			C136.79,167.24,136.762,167.446,136.724,167.742z"/>
		<path d="M145.876,171.056c-0.064,0.326-0.107,0.586-0.129,0.78c-0.104,0.917,0.086,1.724,0.572,2.419
			c0.486,0.696,1.139,1.092,1.961,1.185c0.802,0.092,1.582-0.134,2.34-0.676c0.22-0.151,0.357-0.224,0.411-0.218
			c0.107,0.012,0.154,0.103,0.142,0.271c-0.305,0.423-0.781,0.755-1.43,0.994c-0.648,0.24-1.35,0.318-2.103,0.232
			c-1.107-0.126-2-0.618-2.679-1.478c-0.679-0.858-0.951-1.879-0.817-3.061c0.144-1.265,0.686-2.272,1.625-3.022
			c0.939-0.75,1.889-1.071,2.848-0.962c0.9,0.103,1.675,0.526,2.327,1.271c0.651,0.744,0.926,1.563,0.825,2.453
			c-0.016,0.136-0.048,0.233-0.099,0.293s-0.31,0.063-0.777,0.01L145.876,171.056z M145.933,170.552
			c0.864,0.138,1.704,0.253,2.519,0.346l0.535,0.031c0.402,0.032,0.718-0.008,0.947-0.123c0.229-0.114,0.364-0.346,0.404-0.694
			c0.062-0.543-0.077-1.037-0.415-1.484c-0.338-0.447-0.768-0.701-1.289-0.76c-0.481-0.055-0.986,0.121-1.517,0.528
			C146.587,168.804,146.192,169.523,145.933,170.552z"/>
		<path d="M156.027,170.474c0.48-0.692,0.974-1.2,1.481-1.524c0.508-0.324,1.025-0.465,1.554-0.423
			c0.368,0.03,0.675,0.185,0.921,0.462s0.357,0.578,0.331,0.902c-0.05,0.615-0.346,0.9-0.887,0.856
			c-0.254-0.021-0.454-0.21-0.6-0.567c-0.179-0.451-0.445-0.691-0.799-0.72c-0.334-0.027-0.693,0.126-1.077,0.461
			c-0.384,0.334-0.654,0.712-0.809,1.134s-0.289,1.32-0.4,2.695c-0.103,1.258-0.107,1.984-0.016,2.178s0.356,0.334,0.793,0.422
			c0.119,0.022,0.176,0.072,0.169,0.15c-0.011,0.136-0.174,0.191-0.488,0.166l-3.199-0.26c-0.227-0.019-0.336-0.083-0.328-0.193
			c0.009-0.104,0.164-0.149,0.466-0.138c0.423,0.008,0.694-0.098,0.813-0.316s0.237-1.051,0.354-2.498
			c0.172-2.12,0.23-3.398,0.175-3.834c-0.056-0.436-0.373-0.689-0.953-0.763c-0.24-0.032-0.355-0.104-0.346-0.214
			c0.005-0.059,0.034-0.1,0.086-0.125c0.053-0.025,0.361-0.031,0.925-0.018l1.853,0.053
			C156.066,168.714,156.059,169.419,156.027,170.474z"/>
		<path d="M167.939,174.804c-0.038,0.751-0.358,1.383-0.96,1.895c-0.602,0.513-1.298,0.749-2.086,0.709
			c-0.468-0.023-1.02-0.197-1.653-0.521c-0.347-0.174-0.553-0.263-0.62-0.266c-0.114-0.006-0.218,0.058-0.312,0.189
			c-0.118,0.176-0.226,0.262-0.321,0.257c-0.083-0.004-0.129-0.099-0.14-0.285c-0.011-0.186-0.004-0.606,0.022-1.263
			c0.021-0.564,0.03-0.929,0.024-1.092c0.012-0.24,0.083-0.356,0.214-0.351c0.076,0.004,0.131,0.068,0.167,0.194
			c0.223,0.753,0.557,1.398,1.001,1.938c0.444,0.539,0.983,0.825,1.617,0.856c0.447,0.022,0.851-0.092,1.211-0.344
			c0.36-0.252,0.552-0.608,0.575-1.069c0.036-0.714-0.571-1.379-1.82-1.994c-0.857-0.424-1.428-0.73-1.713-0.921
			c-0.286-0.19-0.504-0.438-0.656-0.746c-0.152-0.308-0.219-0.637-0.202-0.987c0.034-0.669,0.324-1.217,0.87-1.642
			c0.546-0.426,1.192-0.62,1.937-0.582c0.551,0.027,1.146,0.223,1.788,0.587c0.105,0.058,0.198,0.088,0.278,0.092
			c0.067,0.004,0.144-0.046,0.229-0.149c0.083-0.097,0.147-0.144,0.193-0.142c0.059,0.003,0.103,0.03,0.133,0.08
			c0.03,0.051,0.052,0.339,0.066,0.866c0.014,0.526,0.013,0.959-0.004,1.298c-0.01,0.208-0.073,0.31-0.187,0.304
			c-0.101-0.005-0.176-0.103-0.227-0.293c-0.045-0.178-0.189-0.519-0.432-1.023c-0.244-0.505-0.521-0.833-0.833-0.984
			c-0.311-0.151-0.621-0.235-0.929-0.251c-0.482-0.023-0.883,0.07-1.203,0.281c-0.32,0.211-0.488,0.498-0.507,0.861
			c-0.011,0.227,0.042,0.434,0.161,0.622c0.118,0.188,0.23,0.329,0.336,0.426c0.106,0.096,0.729,0.428,1.869,0.995
			c0.708,0.354,1.171,0.622,1.391,0.806c0.219,0.183,0.398,0.424,0.538,0.724C167.894,174.178,167.956,174.487,167.939,174.804z"/>
		<path d="M169.851,173.396c0.02-1.142,0.462-2.141,1.329-2.995c0.867-0.855,1.92-1.272,3.161-1.251
			c1.167,0.02,2.165,0.427,2.993,1.22c0.828,0.793,1.232,1.774,1.212,2.942c-0.021,1.182-0.481,2.21-1.381,3.088
			c-0.901,0.877-1.941,1.306-3.122,1.285c-1.167-0.021-2.163-0.447-2.987-1.283C170.233,175.567,169.831,174.565,169.851,173.396z
			 M171.481,173.366c-0.019,1.116,0.231,2.049,0.752,2.798s1.173,1.13,1.958,1.144c0.717,0.013,1.355-0.323,1.914-1.009
			c0.559-0.685,0.848-1.602,0.867-2.75c0.018-1.025-0.23-1.943-0.743-2.754s-1.188-1.223-2.026-1.237
			c-0.778-0.014-1.421,0.341-1.93,1.063C171.765,171.34,171.5,172.256,171.481,173.366z"/>
		<path d="M182.43,169.228c0.168,0.381,0.279,1.025,0.33,1.934c0.404-0.645,0.855-1.131,1.355-1.46
			c0.5-0.328,1.049-0.498,1.645-0.51c0.457-0.009,0.898,0.064,1.328,0.222s0.764,0.437,1.002,0.837
			c0.24,0.401,0.369,1.089,0.389,2.062l0.004,3.282c0.014,0.604,0.072,0.98,0.18,1.131s0.332,0.268,0.676,0.352
			c0.236,0.061,0.355,0.129,0.355,0.207c0.002,0.098-0.053,0.147-0.168,0.149c-0.047,0.001-0.094-0.001-0.141-0.006
			c-0.309-0.053-0.766-0.073-1.369-0.062c-0.543,0.011-1.127,0.045-1.75,0.104c-0.248,0.005-0.373-0.048-0.375-0.159
			c-0.002-0.077,0.064-0.131,0.199-0.159c0.367-0.085,0.605-0.171,0.719-0.258c0.111-0.087,0.189-0.2,0.234-0.341
			s0.074-0.609,0.088-1.408s0.018-1.448,0.008-1.948c-0.027-1.368-0.225-2.276-0.588-2.724c-0.365-0.447-0.813-0.666-1.342-0.655
			c-0.785,0.016-1.428,0.439-1.932,1.271s-0.736,2.207-0.699,4.123c0.018,0.871,0.088,1.424,0.209,1.658
			c0.123,0.235,0.418,0.374,0.889,0.416c0.148,0.011,0.223,0.071,0.225,0.182c0.002,0.091-0.07,0.138-0.217,0.141l-0.523-0.029
			c-0.188-0.009-0.807-0.003-1.855,0.018l-0.802,0.035c-0.295,0.006-0.443-0.043-0.445-0.146c-0.002-0.11,0.156-0.198,0.474-0.264
			c0.305-0.064,0.509-0.171,0.613-0.319s0.166-0.636,0.186-1.463c0.021-0.827,0.02-1.858-0.006-3.095
			c-0.023-1.151-0.117-1.865-0.283-2.142c-0.167-0.276-0.395-0.444-0.685-0.504c-0.263-0.054-0.396-0.132-0.397-0.236
			c-0.002-0.11,0.098-0.168,0.299-0.172l0.814-0.006C181.16,169.283,181.611,169.264,182.43,169.228z"/>
		<path d="M206.169,164.333c0.342-0.348,0.535-0.579,0.579-0.693c0.054-0.161,0.145-0.247,0.271-0.258
			c0.134-0.011,0.217,0.1,0.25,0.332l0.501,3.372c0.017,0.193,0.018,0.313,0.005,0.356c-0.014,0.043-0.061,0.068-0.141,0.075
			c-0.106,0.009-0.231-0.121-0.375-0.39c-0.527-0.996-1.212-1.79-2.056-2.383c-0.85-0.588-1.739-0.844-2.668-0.767
			c-0.815,0.068-1.543,0.384-2.183,0.949s-1.109,1.334-1.409,2.308s-0.404,2.001-0.314,3.083c0.152,1.839,0.8,3.29,1.941,4.353
			c1.142,1.063,2.357,1.541,3.648,1.434c0.876-0.072,1.659-0.408,2.35-1.007c0.691-0.598,1.194-1.266,1.511-2.003
			c0.084-0.202,0.18-0.309,0.286-0.317c0.147-0.012,0.228,0.06,0.24,0.215c0.016,0.188-0.204,0.62-0.66,1.297
			c-0.455,0.677-1.079,1.247-1.872,1.711c-0.793,0.463-1.664,0.734-2.613,0.813c-1.117,0.093-2.201-0.095-3.253-0.562
			c-1.053-0.467-1.913-1.162-2.582-2.085s-1.058-2.038-1.166-3.346c-0.105-1.282,0.084-2.463,0.571-3.54
			c0.486-1.077,1.225-1.943,2.214-2.6c0.99-0.655,2.037-1.029,3.141-1.121c0.589-0.049,1.198-0.01,1.829,0.117
			C204.845,163.805,205.496,164.023,206.169,164.333z"/>
		<path d="M209.781,171.872c-0.146-1.133,0.149-2.186,0.884-3.156s1.717-1.535,2.947-1.693c1.158-0.148,2.203,0.11,3.138,0.775
			c0.934,0.666,1.476,1.578,1.624,2.736c0.15,1.172-0.157,2.257-0.922,3.255s-1.732,1.572-2.903,1.722
			c-1.157,0.148-2.204-0.131-3.141-0.839S209.93,173.031,209.781,171.872z M211.391,171.606c0.142,1.107,0.524,1.994,1.147,2.66
			s1.324,0.949,2.103,0.85c0.712-0.092,1.294-0.516,1.748-1.274s0.608-1.707,0.462-2.847c-0.131-1.018-0.508-1.89-1.132-2.618
			c-0.625-0.728-1.353-1.038-2.184-0.932c-0.772,0.099-1.357,0.542-1.757,1.329C211.378,169.561,211.249,170.505,211.391,171.606z"
			/>
		<path d="M221.662,166.07c0.104,0.411,0.34,1.61,0.707,3.598c0.226,1.24,0.399,2.063,0.523,2.467
			c0.123,0.404,0.349,0.717,0.676,0.938c0.326,0.222,0.672,0.301,1.035,0.239c0.477-0.082,0.917-0.378,1.323-0.889
			c0.406-0.512,0.624-1.021,0.652-1.531c0.028-0.509-0.107-1.645-0.408-3.406c-0.141-0.819-0.278-1.307-0.413-1.462
			c-0.136-0.154-0.41-0.21-0.825-0.166c-0.152,0.021-0.238-0.021-0.256-0.124c-0.012-0.07,0.004-0.121,0.046-0.151
			s0.189-0.066,0.44-0.109l1.983-0.339c0.179,0.688,0.343,1.464,0.49,2.329l0.538,3.626c0.127,0.743,0.271,1.2,0.433,1.37
			s0.384,0.244,0.666,0.223c0.176-0.004,0.273,0.046,0.291,0.147c0.02,0.116-0.14,0.202-0.477,0.26l-1.567,0.268
			c-0.271,0.047-0.421-0.017-0.451-0.189c-0.008-0.052-0.015-0.109-0.02-0.175c-0.013-0.195-0.036-0.393-0.07-0.592
			c-0.028-0.166-0.08-0.408-0.154-0.725c-0.396,0.714-0.837,1.273-1.325,1.68c-0.489,0.407-1.027,0.66-1.616,0.761
			c-0.502,0.086-0.944,0.04-1.325-0.14c-0.381-0.179-0.654-0.427-0.821-0.744c-0.166-0.318-0.384-1.143-0.652-2.475
			s-0.468-2.379-0.598-3.142c-0.071-0.416-0.139-0.672-0.202-0.767c-0.064-0.094-0.22-0.127-0.466-0.099
			c-0.269,0.026-0.411-0.015-0.43-0.124c-0.019-0.108,0.131-0.19,0.448-0.244L221.662,166.07z"/>
		<path d="M232.038,163.999c0.239,0.34,0.473,0.951,0.7,1.832c0.27-0.711,0.618-1.276,1.045-1.695s0.932-0.692,1.515-0.82
			c0.445-0.098,0.894-0.111,1.346-0.04c0.451,0.07,0.833,0.279,1.146,0.626c0.313,0.347,0.573,0.995,0.781,1.946l0.643,3.219
			c0.129,0.59,0.26,0.947,0.395,1.074c0.134,0.127,0.378,0.198,0.731,0.214c0.243,0.013,0.373,0.058,0.39,0.134
			c0.021,0.096-0.024,0.155-0.136,0.18c-0.046,0.01-0.093,0.018-0.14,0.021c-0.313,0.008-0.766,0.077-1.355,0.206
			c-0.53,0.116-1.096,0.263-1.695,0.44c-0.242,0.054-0.376,0.026-0.399-0.082c-0.017-0.076,0.038-0.142,0.163-0.195
			c0.344-0.155,0.563-0.286,0.656-0.393c0.093-0.106,0.147-0.233,0.164-0.38c0.016-0.146-0.047-0.612-0.188-1.398
			c-0.142-0.786-0.266-1.424-0.372-1.912c-0.293-1.338-0.662-2.19-1.106-2.559c-0.444-0.367-0.925-0.494-1.442-0.381
			c-0.767,0.167-1.316,0.708-1.648,1.622c-0.332,0.915-0.293,2.309,0.116,4.181c0.187,0.851,0.362,1.38,0.527,1.586
			c0.166,0.207,0.483,0.285,0.953,0.235c0.146-0.019,0.232,0.026,0.256,0.134c0.02,0.089-0.043,0.149-0.187,0.181l-0.519,0.073
			c-0.186,0.027-0.791,0.153-1.817,0.378l-0.78,0.19c-0.287,0.063-0.442,0.044-0.465-0.058c-0.023-0.108,0.115-0.225,0.415-0.351
			c0.286-0.122,0.466-0.267,0.539-0.433c0.072-0.165,0.038-0.656-0.103-1.471c-0.141-0.815-0.344-1.827-0.607-3.034
			c-0.246-1.125-0.479-1.808-0.695-2.046c-0.217-0.239-0.474-0.359-0.769-0.361c-0.269-0.002-0.413-0.053-0.436-0.154
			c-0.023-0.108,0.063-0.184,0.259-0.227l0.799-0.165C230.803,164.298,231.243,164.192,232.038,163.999z"/>
		<path d="M243.551,162.162c0.275,1.414,0.59,2.792,0.942,4.132c0.272,1.032,0.576,1.673,0.913,1.92
			c0.337,0.248,0.743,0.31,1.219,0.184c0.346-0.091,0.694-0.313,1.047-0.668c0.127-0.128,0.206-0.195,0.238-0.204
			c0.084-0.022,0.139,0.011,0.161,0.099c0.04,0.15-0.128,0.45-0.504,0.898s-0.898,0.761-1.568,0.938
			c-0.663,0.175-1.22,0.082-1.669-0.277s-0.791-0.982-1.024-1.869c-0.244-0.925-0.604-2.526-1.078-4.804
			c-0.049,0-0.362,0.059-0.941,0.178l-0.594,0.116c-0.145,0.031-0.229,0.003-0.252-0.085c-0.021-0.081,0.042-0.168,0.19-0.261
			c0.24-0.164,0.614-0.558,1.12-1.18c0.507-0.623,0.702-1.364,0.586-2.225c-0.031-0.227,0.013-0.355,0.133-0.388
			c0.119-0.031,0.202,0.041,0.248,0.216c0.016,0.057,0.027,0.117,0.038,0.182c0.044,0.249,0.109,0.533,0.193,0.853l0.396,1.463
			l2.123-0.589c0.363-0.096,0.563-0.104,0.597-0.026c0.069,0.291,0.069,0.486-0.002,0.585
			C245.726,161.437,244.888,161.708,243.551,162.162z"/>
		<path d="M254.229,165.363c0.127-2.052,0.188-3.439,0.181-4.161s-0.071-1.281-0.195-1.678c-0.16-0.515-0.581-0.696-1.265-0.545
			c-0.192,0.038-0.305,0.003-0.339-0.105c-0.031-0.102,0.026-0.176,0.174-0.222c0.051-0.016,0.227-0.061,0.527-0.133
			c0.117-0.03,0.32-0.09,0.608-0.18c0.852-0.265,1.418-0.454,1.698-0.568c0.124-0.053,0.212-0.087,0.264-0.103
			c0.16-0.05,0.257-0.021,0.29,0.088c0.03,0.096-0.035,0.189-0.196,0.281c-0.479,0.271-0.771,0.758-0.879,1.461
			c-0.107,0.704-0.206,2.29-0.296,4.759c-0.085,2.413-0.21,4.174-0.375,5.282c-0.164,1.109-0.44,1.927-0.828,2.452
			c-0.389,0.525-0.825,0.863-1.313,1.015c-0.499,0.156-0.938,0.14-1.316-0.05c-0.379-0.188-0.613-0.429-0.704-0.72
			c-0.073-0.236-0.04-0.475,0.1-0.715c0.14-0.241,0.312-0.394,0.517-0.457c0.525-0.163,0.89,0.003,1.093,0.497
			c0.131,0.334,0.341,0.456,0.63,0.366c0.461-0.144,0.829-0.771,1.104-1.885c0.276-1.112,0.332-1.933,0.168-2.459
			c-0.129-0.416-0.576-1.079-1.341-1.99c-0.765-0.912-1.605-1.893-2.522-2.943c-0.916-1.052-1.506-1.653-1.768-1.807
			s-0.514-0.21-0.754-0.171c-0.22,0.04-0.346,0.008-0.378-0.096c-0.038-0.123,0.02-0.209,0.174-0.257
			c0.063-0.02,0.14-0.036,0.227-0.048c0.387-0.067,0.82-0.176,1.301-0.325c1.024-0.318,1.643-0.532,1.855-0.642
			c0.127-0.064,0.216-0.104,0.268-0.12c0.16-0.05,0.259-0.017,0.295,0.102c0.031,0.1-0.084,0.228-0.345,0.383
			c-0.465,0.288-0.645,0.602-0.539,0.942C250.44,160.905,251.733,162.488,254.229,165.363z"/>
	</g>
	<g>
	</g>
	<g>
	</g>
	<g>
	</g>
	<g>
	</g>
	<g>
	</g>
	<g>
	</g>
</g>
</svg>
